PathFileType	4	(X/Y/Z)	39_2_102_p1_0-515_filt_butterworth.trc
DataRate	CameraRate	NumFrames	NumMarkers	Units	OrigDataRate	OrigDataStartFrame	OrigNumFrames
48.0	48.0	6	27	m	48.0	193	515
Frame#	Time	RHip			RKnee			RAnkle			RBigToe			RSmallToe			RHeel			LHip			LKnee			LAnkle			LBigToe			LSmallToe			LHeel			Neck			Head			Nose			RShoulder			RElbow			RWrist			RThumb			RIndex			RPinky			LShoulder			LElbow			LWrist			LThumb			LIndex			LPinky			
		X1	Y1	Z1	X2	Y2	Z2	X3	Y3	Z3	X4	Y4	Z4	X5	Y5	Z5	X6	Y6	Z6	X7	Y7	Z7	X8	Y8	Z8	X9	Y9	Z9	X10	Y10	Z10	X11	Y11	Z11	X12	Y12	Z12	X13	Y13	Z13	X14	Y14	Z14	X15	Y15	Z15	X16	Y16	Z16	X17	Y17	Z17	X18	Y18	Z18	X19	Y19	Z19	X20	Y20	Z20	X21	Y21	Z21	X22	Y22	Z22	X23	Y23	Z23	X24	Y24	Z24	X25	Y25	Z25	X26	Y26	Z26	X27	Y27	Z27	
193	4.020833333333333	0.3091464567951461	0.716815580460411	0.4896707390079388	0.270093135375936	0.7939171484983012	0.9241419992067149	0.21618334652309515	0.9315185772715683	1.3484316407799024	0.22192173635372936	0.690894348474079	1.355861212297867	0.2774399374062575	0.7213435977632948	1.3730197747915245	0.19850902084926247	0.9698807234092186	1.3847469306059073	0.09742556488173443	0.7107935707502699	0.47017819314623593	0.060298983402469	0.7739025445611314	0.8941396175714892	0.04612350099028375	0.8462027525893289	1.2829479794746326	0.07602886526364597	0.6692360621463547	1.3290058934532885	0.007850015162707757	0.7130408927185223	1.3356535593137229	0.049983708478731424	0.9205355876471644	1.361349156703568	0.24673702062561123	0.6409867940642383	-0.08601734646142271	0.2910753613690796	0.5432400801001815	-0.29172589471440935	0.2766691735294928	0.5005207796135512	-0.18004620827644913	0.4079783056396798	0.6862537606561401	0.004316794159185491	0.44875123751793333	0.690322797723641	0.27778616041771914	0.5108372549623097	0.5206708670653999	0.15277156408065917	0.5184975397054478	0.4706676796302371	0.07122782129336716	0.5180686423400973	0.47637903487915906	0.08540102123850055	0.5186586865344297	0.4949127876496048	0.1279151139561928	0.08256687040801662	0.654346750357487	-0.0073233846599479934	0.018678492162807443	0.6949790498654242	0.2526185233945238	-0.0029137647386787893	0.5634867937139582	0.10672442700741402	-0.00926680251255277	0.5048260205542112	0.017021950434729642	-0.043279457903058656	0.5130144293240688	0.013695729487893554	-0.04074987709964797	0.5075068156372642	0.05598282765748834
194	4.041666666666667	0.3091338655895949	0.716847093777839	0.48966859031775434	0.27007466714488654	0.7928835911763965	0.9251229088479352	0.2159123609074448	0.9315546032189471	1.3484409141719595	0.22196269177955652	0.6909301095195333	1.3558415929356757	0.275581766908445	0.7203868551452061	1.3725291074734658	0.19850409264414617	0.9700008201450597	1.3848474948938598	0.09739040826935139	0.710789815083146	0.4690296734581137	0.06029914145704604	0.7739222804002902	0.8941822853750103	0.046154612234853405	0.8463610654721692	1.284446643379954	0.07603247516527781	0.6692431827362963	1.3290181254809146	0.008245733793635199	0.7121498335498564	1.3352488476591278	0.05003398061634179	0.9209934159188317	1.3634413768688582	0.24982475663589673	0.6368282970709784	-0.08678241656840226	0.3040181098837017	0.5441377266542944	-0.2895576634530062	0.28128608707989716	0.4931527542535199	-0.17977783940718597	0.4080853931783537	0.6866095585174956	0.005649641051240882	0.4464805096130575	0.6904903171496782	0.2778338884372133	0.5090943066476196	0.52400180534604	0.1556921079569572	0.5160504063755288	0.46650080897461943	0.07452075518830996	0.5179521362579145	0.4769816300811465	0.08789781146834663	0.5162564627484025	0.4953327169014315	0.1289836032578468	0.08267214697566119	0.6541393481962292	-0.0072337411891406096	0.013806853333118223	0.6894375803077704	0.25128422214940666	-0.003168163636871005	0.5579168541125173	0.10393122986945125	-0.011623125310632376	0.5112806917306139	0.0160232119964636	-0.04420174654629442	0.515890583699196	0.010127041605118174	-0.040833139726355085	0.5064421888107724	0.05361818828738093
195	4.0625	0.30911862828304015	0.7168941877373076	0.489664393552895	0.2703001659828214	0.7925187310621854	0.9269246852976659	0.21607355746782098	0.9317196061751102	1.3485575093537814	0.2220048342492111	0.6909883657545771	1.3558634618740442	0.27429167509166474	0.7195808848155965	1.3721627456311172	0.19849551528362197	0.9700135302665249	1.384942761770976	0.0973686018379323	0.7104100752730091	0.46728454699655314	0.060217817608721066	0.7739585438444994	0.8942202519548019	0.046171978570169525	0.8465730760928935	1.2848506430290982	0.07603229851055888	0.6692727196155888	1.3290289319514552	0.010030625379538562	0.7078906154624592	1.3332909878182133	0.0500004519633	0.9210082230621208	1.3649583852990763	0.25235478108117954	0.6311241578620622	-0.08679587674306397	0.3155703943555587	0.5404940867289095	-0.2862024507135338	0.2859515453837743	0.48429963032003626	-0.1793609625125364	0.4081734711962053	0.6870923728982175	0.008348379259422532	0.4430734870308838	0.6944133017370142	0.2782396504586755	0.5065968171596491	0.5260898546118606	0.1577869402922767	0.5128210675369264	0.46387845777673986	0.07687743109256567	0.5179002276839981	0.47754734281196654	0.09035599316848172	0.5159027175787553	0.4960448064770813	0.13156250754149812	0.08248911436742447	0.6540377565108227	-0.007241874984671022	0.010637993784552513	0.6838550554247258	0.25035132344406963	-0.00376718831960547	0.5542678707851237	0.10374139098252252	-0.012563110304024403	0.5143701026488916	0.015970511281353517	-0.04290809709797912	0.5158179914112042	0.0077624756620367575	-0.04053032488163365	0.5068420735132013	0.05212821289263106
196	4.083333333333333	0.30911720449647084	0.7169175098104756	0.4896608184273708	0.27049134500420613	0.7925356522556877	0.9282727538430793	0.21617436187414998	0.9317683344354233	1.3486176575714968	0.2220240921455794	0.6910545465437354	1.3559203203854129	0.27392125331995454	0.7192713319371777	1.3720406617288385	0.19849131751830018	0.9699797976260676	1.3849662253394848	0.09737889236446567	0.7098731817393797	0.4659572098323201	0.060125463928356694	0.7739744373552356	0.8942251686510655	0.04615773395325762	0.8466739150348909	1.2847636482210913	0.07603766495769755	0.66928701435512	1.329030975677034	0.012639228283971685	0.7016516594339011	1.3304098342789334	0.049957066309082004	0.920988600194987	1.365438082243486	0.2543677523844423	0.6273641478590583	-0.08661194447955124	0.32384383131411065	0.5318203297308034	-0.2834383305250672	0.29027235528927064	0.4767505489308148	-0.1789453457490134	0.40814254549615975	0.6873293735818784	0.01102585332642335	0.4375989438498793	0.7011616110666233	0.27887509261805665	0.5035388983750176	0.5292929128153117	0.1605436680391678	0.510758753079249	0.4634244726799647	0.0773117619628333	0.5178436195883905	0.47771772203906787	0.09157986969420524	0.5161775883241788	0.49629544781690826	0.1345130717793161	0.08219601224312688	0.6540055908180569	-0.00729633786093218	0.008417675265667123	0.6799836057021347	0.24996912067326787	-0.00418977164358111	0.5536552177812722	0.10456180179774008	-0.011092896999015696	0.511508345060212	0.01634733186260199	-0.03924448416996893	0.5126072295562389	0.006726127648483194	-0.03858174488204218	0.5078439215618505	0.05155215429435552
197	4.104166666666667	0.30911764581729534	0.7169148036696078	0.489670231131347	0.27048267012346366	0.7925599827761637	0.928620329181866	0.21618004151717055	0.9316779236244963	1.3485959106837293	0.22202355633657161	0.6910902819473925	1.3559648433129916	0.273910584581615	0.7193382480605548	1.3720932373370784	0.19851065242481658	0.9699612492164378	1.3849204107358666	0.09742010456225447	0.7096101075032926	0.46551964814155866	0.06040372525362423	0.7739284090948079	0.8942052876093011	0.046088079879935684	0.8466876558470419	1.2847615840485394	0.07603897195322262	0.6692553259669385	1.3290286455062423	0.014390519951726025	0.697452968390982	1.3284704671945993	0.04994097811026602	0.9210136294509843	1.365385946166328	0.25554556825800656	0.6266645829130704	-0.08659636350370872	0.32837950375285546	0.5227541162688402	-0.28219758006134776	0.29321691619030593	0.4735408408277924	-0.17873193607670457	0.40803456341486716	0.6872362934069138	0.012329900834384094	0.4314760791635567	0.7061926175280011	0.2796214339631759	0.5008790162588882	0.5344318031446983	0.16484638412368546	0.5103075368514026	0.4637857931426362	0.07693960744806344	0.5177452355506151	0.477542206969507	0.09183417491750642	0.5162404739086311	0.4959473842085842	0.13584346386890114	0.08275370587145717	0.6540079283367002	-0.007293135753503802	0.006645121661364909	0.6787233124167438	0.25020391866150826	-0.003715788361251157	0.5541834158022927	0.10432506442115558	-0.007024119623786298	0.5020735801883183	0.016732389028977442	-0.03446387897730334	0.5079387284469243	0.0059858522781809555	-0.03391602377848225	0.5056160038768447	0.05093051941094366
198	4.125	0.3090934514723368	0.716916548363903	0.4897083745473906	0.2703984309160204	0.7926922255633578	0.9285708826080754	0.21617420405164528	0.9315056660063239	1.3485549216456247	0.22200994019388753	0.6910693545782696	1.3559720074357577	0.2742509478066459	0.7198870922726901	1.3723889626362509	0.19855031463100142	0.9699660004357433	1.3848434637219236	0.09746016887954112	0.7097664230325554	0.465923413419346	0.06123124053246397	0.7738915077291961	0.8941953074741426	0.04600033434628908	0.8466416114629148	1.2848551603588323	0.07603364443089056	0.6692020207585314	1.3290303101152152	0.014737866423752286	0.6965667123195566	1.3280837467573137	0.049934342059218005	0.9211988095489376	1.3652715794574384	0.2558108698291761	0.6269832262100549	-0.086420008659652	0.3296503216850434	0.5189353432968931	-0.2819899491941593	0.29434089572390854	0.47351343846686306	-0.1787154405489313	0.4083150476601221	0.6871218312394096	0.012446189076709408	0.4278636220679852	0.7079218113227898	0.28088458093799495	0.4995959908488134	0.5384456061498859	0.1690308273058377	0.5104546555104083	0.46402720039699547	0.07665893445415174	0.5176351327099583	0.47742579265409674	0.0916843521318389	0.5161593451895469	0.49555456718320645	0.13626401763726753	0.08517178473125361	0.653914409772502	-0.007229369276400355	0.004772152176415083	0.677754333729303	0.2500252067466052	-0.001814697037940541	0.5544597907710455	0.1023563742259474	-0.0013266174689471376	0.48862689774623697	0.015968642094775998	-0.03038766058050629	0.5050024858307209	0.004599018737752534	-0.02724542410548334	0.4975926014077611	0.048613277926606455
